<svg xmlns="http://www.w3.org/2000/svg" width="512" viewBox="0 0 512 512" height="512"><path fill="#fec9a3" d="m464 319.83v128.17h-352v-128.16a47.966 47.966 0 0 1 39.13-47.17c31.2-5.85 71.73-13.45 84.69-15.89l4.18-.78v-72h96v72l4.18.78 84.67 15.88a47.992 47.992 0 0 1 39.15 47.17z"></path><path fill="#fec093" d="m340.18 256.78a31.976 31.976 0 0 1 -27.24 15.22h-49.88a31.976 31.976 0 0 1 -27.24-15.22l4.18-.78v-72h96v72z"></path><path fill="#f35244" d="m464 319.837v128.163h-352v-128.163a47.939 47.939 0 0 1 39.13-47.17c7.89-1.479 16.38-3.069 24.87-4.669 11.11-2.081 22.23-4.161 32-6 18.37-3.44 32-6 32-6l32 32 12.8 32 3.2 8 3.2-8 12.8-31.998 32-32 64 12 24.85 4.659a48.333 48.333 0 0 1 7.15 1.921 48.014 48.014 0 0 1 32 45.259z"></path><path fill="#d93e30" d="m240 287.998h32v32h-32z"></path><path fill="#d93e30" d="m144 288v32h-32v-.161a47.864 47.864 0 0 1 12.08-31.839z"></path><path fill="#d93e30" d="m176 287.998h32v32h-32z"></path><path fill="#d93e30" d="m368 287.998h32v32h-32z"></path><path fill="#d93e30" d="m304 287.998h32v32h-32z"></path><path fill="#d93e30" d="m464 319.837v.163h-32v-32h19.92a47.9 47.9 0 0 1 12.08 31.837z"></path><path fill="#ea4a3b" d="m272 287.998h-32v-32z"></path><path fill="#ea4a3b" d="m144 274.578v13.422h-19.92a47.787 47.787 0 0 1 19.92-13.422z"></path><path fill="#ea4a3b" d="m336 255.998v32h-32z"></path><path fill="#ea4a3b" d="m451.92 288h-19.92v-13.42a47.787 47.787 0 0 1 19.92 13.42z"></path><path fill="#ea4a3b" d="m208 262v26h-32v-20c11.11-2.083 22.23-4.163 32-6z"></path><path fill="#ea4a3b" d="m400 267.998v20h-32v-26z"></path><path fill="#d93e30" d="m368 351.998h32v32h-32z"></path><path fill="#d93e30" d="m176 351.998h32v32h-32z"></path><path fill="#d93e30" d="m432 351.998h32v32h-32z"></path><path fill="#d93e30" d="m240 351.998h32v32h-32z"></path><path fill="#d93e30" d="m112 351.998h32v32h-32z"></path><path fill="#d93e30" d="m304 351.998h32v32h-32z"></path><path fill="#ea4a3b" d="m368 319.998h32v32h-32z"></path><path fill="#ea4a3b" d="m304 319.998h32v32h-32z"></path><path fill="#ea4a3b" d="m240 319.998h32v32h-32z"></path><path fill="#ea4a3b" d="m176 319.998h32v32h-32z"></path><path fill="#ea4a3b" d="m112 319.998h32v32h-32z"></path><path fill="#ea4a3b" d="m432 319.998h32v32h-32z"></path><path fill="#d93e30" d="m368 415.998h32v32h-32z"></path><path fill="#d93e30" d="m240 415.998h32v32h-32z"></path><path fill="#d93e30" d="m112 415.998h32v32h-32z"></path><path fill="#d93e30" d="m176 415.998h32v32h-32z"></path><path fill="#d93e30" d="m432 415.998h32v32h-32z"></path><path fill="#d93e30" d="m304 415.998h32v32h-32z"></path><g fill="#ea4a3b"><path d="m304 383.998h32v32h-32z"></path><path d="m368 383.998h32v32h-32z"></path><path d="m112 383.998h32v32h-32z"></path><path d="m240 383.998h32v32h-32z"></path><path d="m176 383.998h32v32h-32z"></path><path d="m432 383.998h32v32h-32z"></path><path d="m208 287.998h32v32h-32z"></path></g><path fill="#fc685b" d="m240 256v32h-32v-26c18.37-3.442 32-6 32-6z"></path><path fill="#ea4a3b" d="m208 351.998h32v32h-32z"></path><path fill="#fc685b" d="m208 319.998h32v32h-32z"></path><path fill="#ea4a3b" d="m208 415.998h32v32h-32z"></path><path fill="#fc685b" d="m208 383.998h32v32h-32z"></path><path fill="#ea4a3b" d="m272 287.998 12.8 32h-12.8z"></path><path fill="#ea4a3b" d="m304 287.998v32h-12.8z"></path><path fill="#ea4a3b" d="m272 351.998h32v32h-32z"></path><path fill="#fc685b" d="m304 319.998v32h-32v-32h12.8l3.2 8 3.2-8z"></path><path fill="#ea4a3b" d="m272 415.998h32v32h-32z"></path><path fill="#fc685b" d="m272 383.998h32v32h-32z"></path><path fill="#ea4a3b" d="m336 287.998h32v32h-32z"></path><path fill="#fc685b" d="m368 261.998v26h-32v-32z"></path><path fill="#ea4a3b" d="m336 351.998h32v32h-32z"></path><path fill="#fc685b" d="m336 319.998h32v32h-32z"></path><path fill="#ea4a3b" d="m336 415.998h32v32h-32z"></path><path fill="#fc685b" d="m336 383.998h32v32h-32z"></path><path fill="#ea4a3b" d="m400 287.998h32v32h-32z"></path><path fill="#fc685b" d="m432 274.578v13.422h-32v-20l24.85 4.659a48.333 48.333 0 0 1 7.15 1.919z"></path><path fill="#ea4a3b" d="m400 351.998h32v32h-32z"></path><path fill="#fc685b" d="m400 319.998h32v32h-32z"></path><path fill="#ea4a3b" d="m400 415.998h32v32h-32z"></path><path fill="#fc685b" d="m400 383.998h32v32h-32z"></path><path fill="#ea4a3b" d="m144 287.998h32v32h-32z"></path><path fill="#fc685b" d="m176 268v20h-32v-13.42a47.931 47.931 0 0 1 7.13-1.911c7.89-1.481 16.38-3.069 24.87-4.669z"></path><path fill="#ea4a3b" d="m144 351.998h32v32h-32z"></path><path fill="#fc685b" d="m144 319.998h32v32h-32z"></path><path fill="#ea4a3b" d="m144 415.998h32v32h-32z"></path><path fill="#fc685b" d="m144 383.998h32v32h-32z"></path><path fill="#3d4d63" d="m368 352v-90l-32-6v96h-96v-96l-32 6v90l-24 96v40h208v-40z"></path><path fill="#374559" d="m368 322.142a424.923 424.923 0 0 1 -184 157.628v8.23h208v-40l-24-96z"></path><path fill="#fc685b" d="m272 287.998-32-32v56z"></path><path fill="#fc685b" d="m304 287.998 32-32v56z"></path><path fill="#fec093" d="m360 104h8a24 24 0 0 1 24 24 24 24 0 0 1 -24 24h-8a0 0 0 0 1 0 0v-48a0 0 0 0 1 0 0z"></path><path fill="#fec093" d="m216 104h-8a24.071 24.071 0 0 0 -24 24 24.071 24.071 0 0 0 24 24h8.48"></path><path fill="#fec9a3" d="m360 96v56a72 72 0 0 1 -144 0v-56a72 72 0 0 1 144 0z"></path><path fill="#fec093" d="m360 96v56a71.993 71.993 0 0 1 -39.66 64.339 71.646 71.646 0 0 0 7.66-32.339v-88a72.059 72.059 0 0 0 -56-70.22 72.715 72.715 0 0 1 16-1.78 72 72 0 0 1 72 72z"></path><circle r="12" fill="#7a432a" cy="115.998" cx="252"></circle><circle r="12" fill="#7a432a" cy="115.998" cx="324"></circle><path fill="#feb784" d="m304 160h-32a8 8 0 0 1 -7.59-10.532l16-48 15.18 5.063-12.49 37.469h20.9z"></path><path fill="#7a432a" d="m352 64h-112a20 20 0 0 1 -20-20 20 20 0 0 1 20-20h63.208a49.758 49.758 0 0 1 48.792 40z"></path><path fill="#d93e30" d="m176 351.998h16v96h-16z"></path><path fill="#d93e30" d="m384 351.998h16v96h-16z"></path><path fill="#61311b" d="m297.086 23.998h-18.788l24.616 40h18.788z"></path><path fill="#61311b" d="m240 24c-.562 0-1.091.12-1.641.165l24.326 39.835h18.752l-24.428-40z"></path><path fill="#feb784" d="m368 392-256 8v64a24 24 0 0 0 24 24h48l184-53.455 56-10.545 40 16v-64l-48-8z"></path><path fill="#95573a" d="m96 232h40v256h-40z"></path><path fill="#e0e0de" d="m184 232h-136v-48h80l24 16h32z"></path><path fill="#d6d6d4" d="m138.286 190.857-64.286 41.143h110v-32h-32z"></path><path fill="#82462a" d="m96 232h40v24h-40z"></path><path fill="#fec9a3" d="m208 392 256 16v56a24 24 0 0 1 -24 24h-48l-184-40-56-8h-80v-72h88z"></path><path fill="#7a432a" d="m312.935 256h-49.871a32 32 0 0 1 -30.358-21.881l-11.78-35.341a95.99 95.99 0 0 1 -4.926-30.359v-64.419l13.821 43.642a20.093 20.093 0 0 0 29.117 7.732 20.1 20.1 0 0 1 11.145-3.374h35.833a20.1 20.1 0 0 1 11.146 3.374l1.4.937a20.093 20.093 0 0 0 28.374-6.381l13.164-45.93v64.421a95.973 95.973 0 0 1 -4.927 30.358l-11.78 35.34a32 32 0 0 1 -30.358 21.881z"></path><path fill="#fec9a3" d="m278.891 192h-14.891v-16h14.891c10.957 0 21.554-2.516 29.078-6.907l8.062 13.813c-10.043 5.865-23.231 9.094-37.14 9.094z"></path></svg>